<?xml version="1.0" encoding="UTF-8"?>
<svg id="b" data-name="Layer 2" xmlns="http://www.w3.org/2000/svg" width="66.698" height="155.12" viewBox="0 0 66.698 155.12">
  <g id="c" data-name="DUDE 02">
    <g>
      <rect x="39.428" y="132.68" width="10.45" height="12.39" fill="#f1b559" stroke-width="0"/>
      <rect x="18.528" y="125.89" width="10.45" height="19.19" fill="#f1b559" stroke-width="0"/>
      <rect x="13.968" y="10.68" width="40.77" height="27.03" fill="#a16125" stroke-width="0"/>
      <rect x="17.068" y="10.68" width="34.57" height="30.54" fill="#f4c479" stroke-width="0"/>
      <g>
        <rect x="22.692" y="23.467" width="4.77" height="1.38" fill="#3e3e42" stroke-width="0"/>
        <rect x="24.695" y="22.053" width="4.77" height="2.8" fill="#3e3e42" stroke-width="0"/>
      </g>
      <g>
        <rect x="40.788" y="23.48" width="4.77" height="1.38" fill="#3e3e42" stroke-width="0"/>
        <rect x="38.628" y="22.05" width="4.77" height="2.8" fill="#3e3e42" stroke-width="0"/>
      </g>
      <rect x="13.976" y="21.183" width="3.1" height="8.95" fill="#f1b559" stroke-width="0"/>
      <rect x="51.642" y="21.183" width="3.1" height="8.95" fill="#f1b559" stroke-width="0"/>
      <rect x="13.968" y="4.43" width="40.77" height="8.27" fill="#a16125" stroke-width="0"/>
      <rect x="21.168" y="12.43" width="26.38" height="4.43" fill="#a16125" stroke-width="0"/>
      <rect x="18.668" width="31.38" height="4.43" fill="#a16125" stroke-width="0"/>
      <rect x="12.448" y="48.83" width="43.81" height="61.07" fill="#4286f5" stroke-width="0"/>
      <rect x="12.448" y="109.9" width="43.81" height="16.39" fill="#2d2e30" stroke-width="0"/>
      <rect x="12.448" y="109.9" width="18.59" height="18.33" fill="#3e3e42" stroke-width="0"/>
      <rect x="11.128" y="128.23" width="20.87" height="4.41" fill="#57565c" stroke-width="0"/>
      <rect x="9.628" y="145.08" width="24.23" height="7.84" fill="#e94434" stroke-width="0"/>
      <rect x="34.858" y="145.08" width="24.23" height="7.84" fill="#e94434" stroke-width="0"/>
      <rect x="37.678" y="109.9" width="18.59" height="20.27" fill="#3e3e42" stroke-width="0"/>
      <rect x="56.258" y="54.28" width="8.89" height="55.62" fill="#f1b559" stroke-width="0"/>
      <rect x="56.258" y="54.28" width="8.89" height="17.34" fill="#2e6fce" stroke-width="0"/>
      <rect x="56.258" y="71.72" width="10.44" height="4.02" fill="#205096" stroke-width="0"/>
      <rect x="20.138" y="41.23" width="28.44" height="3.8" fill="#a16125" stroke-width="0"/>
      <rect x="17.068" y="37.71" width="7.23" height="3.8" fill="#a16125" stroke-width="0"/>
      <rect x="44.408" y="37.42" width="7.23" height="3.8" fill="#a16125" stroke-width="0"/>
      <rect x="23.748" y="45.03" width="21.21" height="3.8" fill="#a16125" stroke-width="0"/>
      <rect x="27.488" y="48.83" width="13.47" height="3.8" fill="#a16125" stroke-width="0"/>
      <rect x="30.888" y="52.63" width="6.17" height="3.8" fill="#a16125" stroke-width="0"/>
      <g>
        <rect x="28.754" y="33.366" width="11.2" height="3.8" fill="#fff" stroke-width="0"/>
        <rect x="26.484" y="29.565" width="15.74" height="3.8" fill="#fff" stroke-width="0"/>
      </g>
      <rect x="12.448" y="109.89" width="43.81" height="3.8" fill="#2d2e30" stroke-width="0"/>
      <rect x="36.528" y="128.16" width="20.87" height="4.41" fill="#57565c" stroke-width="0"/>
      <rect x="7.228" y="152.92" width="55.2" height="2.2" fill="#e1e1e3" stroke-width="0"/>
      <rect x="31.918" y="83.43" width="4.87" height="4.87" fill="#82caf9" stroke-width="0"/>
      <rect x="31.918" y="78.55" width="4.87" height="4.87" fill="#82caf9" stroke-width="0"/>
      <rect x="27.048" y="78.55" width="4.87" height="4.87" fill="#82caf9" stroke-width="0"/>
      <rect x="36.788" y="78.55" width="4.87" height="4.87" fill="#82caf9" stroke-width="0"/>
      <rect x="31.918" y="73.73" width="4.87" height="4.87" fill="#82caf9" stroke-width="0"/>
      <rect x="27.048" y="73.73" width="4.87" height="4.87" fill="#82caf9" stroke-width="0"/>
      <rect x="27.048" y="68.85" width="4.87" height="4.87" fill="#82caf9" stroke-width="0"/>
      <rect x="22.168" y="68.85" width="4.87" height="4.87" fill="#82caf9" stroke-width="0"/>
      <rect x="24.608" y="63.98" width="4.87" height="4.87" fill="#82caf9" stroke-width="0"/>
      <rect x="18.298" y="70.86" width="3.87" height="4.87" fill="#82caf9" stroke-width="0"/>
      <rect x="45.538" y="71.29" width="4.87" height="4.87" fill="#82caf9" stroke-width="0"/>
      <rect x="36.788" y="68.85" width="4.87" height="4.87" fill="#82caf9" stroke-width="0"/>
      <rect x="41.668" y="68.85" width="4.87" height="4.87" fill="#82caf9" stroke-width="0"/>
      <rect x="39.428" y="63.98" width="4.87" height="4.87" fill="#82caf9" stroke-width="0"/>
      <rect x="36.788" y="73.73" width="4.87" height="4.87" fill="#82caf9" stroke-width="0"/>
      <rect x="41.668" y="73.73" width="4.87" height="4.87" fill="#82caf9" stroke-width="0"/>
      <rect x="22.168" y="73.73" width="4.87" height="4.87" fill="#82caf9" stroke-width="0"/>
      <rect x="15.178" y="138.92" width="15.71" height="6.16" fill="#cc352e" stroke-width="0"/>
      <rect x="38.128" y="138.92" width="15.71" height="6.16" fill="#cc352e" stroke-width="0"/>
      <rect x="56.264" y="105.902" width="7.52" height="10.71" fill="#f4c479" stroke-width="0"/>
      <g>
        <rect x="1.561" y="16.003" width="8.89" height="55.62" fill="#f1b559" stroke-width="0"/>
        <rect x="1.558" y="54.18" width="10.89" height="17.44" fill="#2e6fce" stroke-width="0"/>
        <rect y="50.165" width="12.45" height="4.02" fill="#205096" stroke-width="0"/>
        <rect x="2.931" y="9.299" width="7.52" height="10.71" fill="#f4c479" stroke-width="0"/>
      </g>
      <rect x="56.264" y="105.902" width="7.52" height="10.71" fill="#f4c479" stroke-width="0"/>
    </g>
  </g>
</svg>