<?xml version="1.0" encoding="iso-8859-1"?>
<!-- Uploaded to: SVG Repo, www.svgrepo.com, Generator: SVG Repo Mixer Tools -->
<svg height="800px" width="800px" version="1.1" id="Layer_1" xmlns="http://www.w3.org/2000/svg" xmlns:xlink="http://www.w3.org/1999/xlink" 
	 viewBox="0 0 503.322 503.322" xml:space="preserve">
<g>
	<path style="fill:#797979;" d="M112.814,433.898c0-23.96-19.43-43.39-43.39-43.39s-43.39,19.43-43.39,43.39
		c0,23.96,19.43,43.39,43.39,43.39S112.814,457.858,112.814,433.898"/>
	<path style="fill:#C0C0C0;" d="M69.424,451.254c-9.58,0-17.356-7.775-17.356-17.356s7.775-17.356,17.356-17.356
		s17.356,7.775,17.356,17.356S79.004,451.254,69.424,451.254"/>
	<path style="fill:#797979;" d="M199.593,433.898c0-23.96-19.43-43.39-43.39-43.39s-43.39,19.43-43.39,43.39
		c0,23.96,19.43,43.39,43.39,43.39S199.593,457.858,199.593,433.898"/>
	<path style="fill:#C0C0C0;" d="M156.203,451.254c-9.58,0-17.356-7.775-17.356-17.356s7.775-17.356,17.356-17.356
		s17.356,7.775,17.356,17.356S165.784,451.254,156.203,451.254"/>
	<path style="fill:#797979;" d="M390.508,433.898c0-23.96-19.43-43.39-43.39-43.39c-23.96,0-43.39,19.43-43.39,43.39
		c0,23.96,19.43,43.39,43.39,43.39C371.078,477.288,390.508,457.858,390.508,433.898"/>
	<path style="fill:#C0C0C0;" d="M347.119,451.254c-9.58,0-17.356-7.775-17.356-17.356s7.775-17.356,17.356-17.356
		s17.356,7.775,17.356,17.356S356.699,451.254,347.119,451.254"/>
	<path style="fill:#797979;" d="M477.288,433.898c0-23.96-19.43-43.39-43.39-43.39c-23.96,0-43.39,19.43-43.39,43.39
		c0,23.96,19.43,43.39,43.39,43.39C457.858,477.288,477.288,457.858,477.288,433.898"/>
	<path style="fill:#C0C0C0;" d="M433.898,451.254c-9.58,0-17.356-7.775-17.356-17.356s7.775-17.356,17.356-17.356
		s17.356,7.775,17.356,17.356S443.479,451.254,433.898,451.254"/>
	<path style="fill:#B64446;" d="M0,364.475v69.424h26.034c0-23.96,19.43-43.39,43.39-43.39s43.39,19.43,43.39,43.39
		c0-23.96,19.43-43.39,43.39-43.39s43.39,19.43,43.39,43.39h104.136c0-23.96,19.43-43.39,43.39-43.39
		c23.96,0,43.39,19.43,43.39,43.39c0-23.96,19.43-43.39,43.39-43.39c23.96,0,43.39,19.43,43.39,43.39h26.034v-69.424H0z"/>
	<g>
		<path style="fill:#DD6A64;" d="M33.981,364.475l-2.708-5.077c-41.698-78.188-41.698-171.997,0-250.186l2.708-5.077h435.356
			l2.716,5.077c41.689,78.188,41.689,171.997,0,250.186l-2.716,5.077H33.981z"/>
		<polygon style="fill:#DD6A64;" points="86.784,69.424 156.208,69.424 156.208,26.034 86.784,26.034 		"/>
	</g>
	<g>
		<polygon style="fill:#B64446;" points="104.14,104.136 138.852,104.136 138.852,69.424 104.14,69.424 		"/>
		<path style="fill:#B64446;" d="M425.22,234.305c4.799,0,8.678-3.888,8.678-8.678V104.136h-17.356v121.492
			C416.542,230.417,420.421,234.305,425.22,234.305"/>
		<path style="fill:#B64446;" d="M338.441,234.305c4.799,0,8.678-3.888,8.678-8.678V104.136h-17.356v121.492
			C329.763,230.417,333.642,234.305,338.441,234.305"/>
		<path style="fill:#B64446;" d="M251.661,234.305c4.799,0,8.678-3.888,8.678-8.678V104.136h-17.356v121.492
			C242.983,230.417,246.862,234.305,251.661,234.305"/>
		<path style="fill:#B64446;" d="M164.881,234.305c4.799,0,8.678-3.888,8.678-8.678V104.136h-17.356v121.492
			C156.203,230.417,160.082,234.305,164.881,234.305"/>
		<path style="fill:#B64446;" d="M78.102,234.305c4.799,0,8.678-3.888,8.678-8.678V104.136H69.424v121.492
			C69.424,230.417,73.303,234.305,78.102,234.305"/>
	</g>
</g>
</svg>