<?xml version="1.0" encoding="iso-8859-1"?>
<!-- Uploaded to: SVG Repo, www.svgrepo.com, Generator: SVG Repo Mixer Tools -->
<svg version="1.1" id="Layer_1" xmlns="http://www.w3.org/2000/svg" xmlns:xlink="http://www.w3.org/1999/xlink" 
	 viewBox="0 0 437.359 437.359" xml:space="preserve">
<g>
	<path style="fill:#B52828;" d="M218.679,3.206L218.679,3.206c-20.251,0-36.667,16.416-36.667,36.667v34.333h73.333V39.873
		C255.346,19.622,238.93,3.206,218.679,3.206z"/>
	<path style="fill:#E0AA34;" d="M246.833,39.876c0,15.54-12.61,28.15-28.15,28.15c-5.32,0-10.3-1.48-14.54-4.04
		c-8.16-4.93-13.62-13.89-13.62-24.11c0-15.55,12.61-28.16,28.16-28.16c7.32,0,13.99,2.79,18.99,7.39
		C243.303,24.246,246.833,31.646,246.833,39.876z"/>
	<circle style="fill:#F9C032;" cx="218.679" cy="39.873" r="23.787"/>
	<polygon style="fill:#2D4151;" points="227.116,42.372 216.18,42.372 216.18,24.872 221.18,24.872 221.18,37.372 227.116,37.372 	
		"/>
	<path style="opacity:0.2;fill:#FCFAFA;enable-background:new    ;" d="M245.088,40.178c0,14.269-11.579,25.848-25.848,25.848
		c-4.885,0-9.458-1.359-13.351-3.71c9.871-8.154,21.514-21.128,30.789-41.21C241.847,25.826,245.088,32.621,245.088,40.178z"/>
	<rect x="115.326" y="75.125" style="fill:#CE4545;" width="206.708" height="334.132"/>
	<rect x="125.325" y="95.486" style="fill:#2D4151;" width="186.708" height="303.771"/>
	<path style="fill:#CE4545;" d="M315.86,186.672v-10h-43.003V88.945h-10v87.728H223.68V88.945h-10v87.728h-39.177V88.945h-10v87.728
		h-43.004v10h43.004v81.186h-43.004v10H315.86v-10h-43.003v-81.186h43.003V186.672z M174.503,186.672h39.177v81.186h-39.177V186.672
		z M262.857,267.858H223.68v-81.186h39.177V267.858z"/>
	<path style="opacity:0.2;fill:#FCFAFA;enable-background:new    ;" d="M308.797,206.195v58.241H275.48
		C275.48,264.436,304.716,255.083,308.797,206.195z"/>
	<path style="opacity:0.2;fill:#FCFAFA;enable-background:new    ;" d="M259.464,206.195v58.241h-33.317
		C226.147,264.436,255.383,255.083,259.464,206.195z"/>
	<path style="opacity:0.2;fill:#FCFAFA;enable-background:new    ;" d="M210.131,206.195v58.241h-33.317
		C176.813,264.436,206.049,255.083,210.131,206.195z"/>
	<path style="opacity:0.2;fill:#FCFAFA;enable-background:new    ;" d="M160.797,206.195v58.241H127.48
		C127.48,264.436,156.716,255.083,160.797,206.195z"/>
	<path style="opacity:0.2;fill:#FCFAFA;enable-background:new    ;" d="M308.797,115.195v58.241H275.48
		C275.48,173.436,304.716,164.083,308.797,115.195z"/>
	<path style="opacity:0.2;fill:#FCFAFA;enable-background:new    ;" d="M259.464,115.195v58.241h-33.317
		C226.147,173.436,255.383,164.083,259.464,115.195z"/>
	<path style="opacity:0.2;fill:#FCFAFA;enable-background:new    ;" d="M210.131,115.195v58.241h-33.317
		C176.813,173.436,206.049,164.083,210.131,115.195z"/>
	<path style="opacity:0.2;fill:#FCFAFA;enable-background:new    ;" d="M160.797,115.195v58.241H127.48
		C127.48,173.436,156.716,164.083,160.797,115.195z"/>
	<rect x="39.664" y="284.486" style="fill:#CE4545;" width="358.031" height="124.771"/>
	<rect x="102.679" y="70.125" style="fill:#B52828;" width="232.001" height="20.361"/>
	<rect x="24.576" y="277.858" style="fill:#B52828;" width="388.207" height="20.361"/>
	<g>
		<rect x="120.714" y="119.746" style="fill:#CE4545;" width="193" height="3"/>
		<rect x="120.714" y="149.412" style="fill:#CE4545;" width="193" height="3"/>
	</g>
	<g>
		<rect x="120.714" y="210.932" style="fill:#CE4545;" width="193" height="3"/>
		<rect x="120.714" y="240.598" style="fill:#CE4545;" width="193" height="3"/>
	</g>
	<g>
		<g>
			<rect x="169.091" y="323.072" style="fill:#B52828;" width="99.178" height="86.185"/>
			<rect x="174.091" y="328.071" style="fill:#2D4151;" width="39.177" height="81.186"/>
			<rect x="224.091" y="328.071" style="fill:#2D4151;" width="39.177" height="81.186"/>
		</g>
		<g>
			<rect x="56.091" y="323.072" style="fill:#B52828;" width="99.178" height="86.185"/>
			<rect x="61.091" y="328.071" style="fill:#2D4151;" width="39.177" height="81.186"/>
			<rect x="111.091" y="328.071" style="fill:#2D4151;" width="39.177" height="81.186"/>
		</g>
		<g>
			<rect x="282.091" y="323.072" style="fill:#B52828;" width="99.178" height="86.185"/>
			<rect x="287.091" y="328.071" style="fill:#2D4151;" width="39.177" height="81.186"/>
			<rect x="337.091" y="328.071" style="fill:#2D4151;" width="39.177" height="81.186"/>
		</g>
	</g>
	<polygon style="fill:#CE4545;" points="427.927,425.486 427.927,416.819 419.013,416.819 419.013,408.153 18.346,408.153 
		18.346,416.819 9.432,416.819 9.432,425.486 0,425.486 0,434.153 437.359,434.153 437.359,425.486 	"/>
	<polygon style="fill:#F9C032;" points="95.145,340.819 18.283,340.819 8.033,326.486 18.283,312.153 95.145,312.153 	"/>
	<g>
		<path style="fill:#FFFFFF;" d="M29.641,322.438h2.564c1.889,0,2.744,1.248,2.744,2.812c0,1.799-1.146,2.822-2.756,2.822h-0.934
			v1.9c0,0.428-0.146,0.563-0.551,0.563H29.64c-0.404,0-0.563-0.135-0.563-0.563V323C29.079,322.573,29.225,322.438,29.641,322.438z
			 M31.261,324.158v2.192h0.563c0.82,0,1.182-0.416,1.182-1.079s-0.361-1.113-1.182-1.113L31.261,324.158L31.261,324.158z"/>
		<path style="fill:#FFFFFF;" d="M36.786,322.438h1.068c0.404,0,0.551,0.135,0.551,0.563v5.701h1.99c0.27,0,0.449,0.124,0.449,0.371
			v1.068c0,0.271-0.135,0.394-0.449,0.394h-3.609c-0.406,0-0.563-0.135-0.563-0.563V323
			C36.223,322.573,36.37,322.438,36.786,322.438z"/>
		<path style="fill:#FFFFFF;" d="M47.46,330.534c-0.506,0-0.619-0.112-0.766-0.652l-0.27-0.955h-2.541l-0.258,0.955
			c-0.146,0.552-0.26,0.652-0.754,0.652h-1.08c-0.303,0-0.449-0.09-0.449-0.304c0-0.09,0.021-0.19,0.066-0.326l2.34-6.713
			c0.203-0.585,0.404-0.754,0.99-0.754h0.854c0.574,0,0.787,0.18,0.99,0.754l2.305,6.713c0.045,0.136,0.068,0.248,0.068,0.338
			c0,0.214-0.135,0.292-0.439,0.292L47.46,330.534L47.46,330.534z M44.368,327.206h1.584l-0.787-2.879L44.368,327.206z"/>
		<path style="fill:#FFFFFF;" d="M52.94,324.158v5.813c0,0.428-0.158,0.563-0.563,0.563h-1.068c-0.395,0-0.551-0.135-0.551-0.563
			v-5.813h-1.564c-0.27,0-0.438-0.124-0.438-0.371v-0.956c0-0.27,0.135-0.394,0.438-0.394h5.287c0.27,0,0.449,0.124,0.449,0.371
			v0.956c0,0.27-0.135,0.394-0.449,0.394H52.94z"/>
		<path style="fill:#FFFFFF;" d="M56.653,322.438h3.936c0.271,0,0.451,0.124,0.451,0.371v0.956c0,0.27-0.135,0.394-0.451,0.394
			h-2.316v1.731h1.654c0.27,0,0.438,0.124,0.438,0.371v0.956c0,0.271-0.123,0.394-0.438,0.394h-1.654v2.361
			c0,0.428-0.146,0.563-0.551,0.563h-1.068c-0.404,0-0.563-0.135-0.563-0.563V323C56.091,322.573,56.237,322.438,56.653,322.438z"/>
		<path style="fill:#FFFFFF;" d="M65.651,330.658c-3.092,0-3.857-2.193-3.857-4.127c0-1.935,0.766-4.218,3.857-4.218
			c3.094,0,3.848,2.283,3.848,4.218C69.499,328.465,68.745,330.658,65.651,330.658z M65.641,328.904
			c1.461,0,1.787-1.259,1.787-2.384c0-1.113-0.326-2.44-1.787-2.44c-1.439,0-1.777,1.316-1.777,2.44
			C63.864,327.656,64.202,328.904,65.641,328.904z"/>
		<path style="fill:#FFFFFF;" d="M75.608,330.534c-0.506,0-0.629-0.112-0.91-0.652l-1.158-2.26h-0.473v2.35
			c0,0.428-0.146,0.563-0.551,0.563h-1.068c-0.406,0-0.563-0.135-0.563-0.563V323c0-0.428,0.146-0.563,0.563-0.563h2.563
			c1.891,0,2.869,1.103,2.869,2.609c0,1.046-0.551,1.821-1.395,2.237l1.529,2.62c0.102,0.181,0.156,0.315,0.156,0.416
			c0,0.146-0.123,0.214-0.381,0.214h-1.181V330.534z M73.067,324.046v1.968h0.563c0.82,0,1.18-0.383,1.18-0.956
			c0-0.618-0.359-1.012-1.18-1.012H73.067z"/>
		<path style="fill:#FFFFFF;" d="M79.03,322.438h1.035c0.506,0,0.572,0.169,0.865,0.652l1.664,2.665l1.666-2.665
			c0.291-0.483,0.359-0.652,0.865-0.652h1.035c0.404,0,0.551,0.135,0.551,0.563v6.972c0,0.428-0.146,0.563-0.551,0.563h-0.844
			c-0.406,0-0.563-0.135-0.563-0.563v-4.25l-1.238,1.934c-0.111,0.169-0.258,0.248-0.426,0.248h-0.9
			c-0.225,0-0.438-0.091-0.539-0.248l-1.215-1.911v4.228c0,0.428-0.158,0.563-0.563,0.563H79.03c-0.404,0-0.563-0.135-0.563-0.563
			V323C78.468,322.573,78.614,322.438,79.03,322.438z"/>
	</g>
	<path style="opacity:0.2;fill:#FCFAFA;enable-background:new    ;" d="M98.131,346.952v58.241H64.813
		C64.813,405.193,94.049,395.84,98.131,346.952z"/>
	<path style="opacity:0.2;fill:#FCFAFA;enable-background:new    ;" d="M147.797,346.952v58.241H114.48
		C114.48,405.193,143.716,395.84,147.797,346.952z"/>
	<path style="opacity:0.2;fill:#FCFAFA;enable-background:new    ;" d="M210.464,346.952v58.241h-33.317
		C177.147,405.193,206.383,395.84,210.464,346.952z"/>
	<path style="opacity:0.2;fill:#FCFAFA;enable-background:new    ;" d="M260.464,346.952v58.241h-33.317
		C227.147,405.193,256.383,395.84,260.464,346.952z"/>
	<path style="opacity:0.2;fill:#FCFAFA;enable-background:new    ;" d="M323.131,346.952v58.241h-33.317
		C289.813,405.193,319.049,395.84,323.131,346.952z"/>
	<path style="opacity:0.2;fill:#FCFAFA;enable-background:new    ;" d="M373.464,346.952v58.241h-33.317
		C340.147,405.193,369.383,395.84,373.464,346.952z"/>
	<g>
		<path style="fill:#F9C032;" d="M119.536,281.189c1.218,0,3.508,2.29,8.38,2.29c4.628,0,5.846-1.998,5.846-3.654
			c0-5.944-14.761-2.094-14.761-14.665c0-8.234,6.187-10.815,11.984-10.815c2.047,0,5.067,0.292,7.454,1.705
			c1.9,1.072,3.071,2.631,3.071,4.725c0,1.754-0.78,2.777-1.657,2.777c-1.267,0-3.557-1.997-7.405-1.997
			c-2.534,0-4.532,0.78-4.532,3.07c0,6.284,14.812,1.753,14.812,14.859c0,8.039-5.409,11.206-13.349,11.206
			c-3.314,0-7.017-0.535-9.062-1.997c-1.365-0.975-2.192-2.339-2.192-4.19C118.124,283.479,118.367,281.189,119.536,281.189z"/>
		<path style="fill:#F9C032;" d="M163.676,262.188v25.189c0,1.851-0.682,2.436-2.436,2.436h-4.628c-1.706,0-2.389-0.584-2.389-2.436
			v-25.189h-6.772c-1.169,0-1.9-0.535-1.9-1.607v-4.142c0-1.169,0.584-1.705,1.9-1.705h22.899c1.169,0,1.947,0.536,1.947,1.608
			v4.141c0,1.17-0.584,1.705-1.947,1.705L163.676,262.188L163.676,262.188z"/>
		<path style="fill:#F9C032;" d="M197.389,289.813c-2.192,0-2.679-0.487-3.312-2.826l-1.169-4.141h-11.011l-1.12,4.141
			c-0.633,2.388-1.122,2.826-3.265,2.826h-4.677c-1.316,0-1.949-0.39-1.949-1.316c0-0.389,0.098-0.828,0.292-1.412l10.135-29.087
			c0.877-2.534,1.753-3.264,4.287-3.264h3.703c2.485,0,3.41,0.78,4.289,3.264l9.986,29.087c0.196,0.584,0.294,1.072,0.294,1.461
			c0,0.926-0.586,1.267-1.9,1.267H197.389z M183.991,275.391h6.87l-3.41-12.472L183.991,275.391z"/>
		<path style="fill:#F9C032;" d="M221.116,262.188v25.189c0,1.851-0.682,2.436-2.436,2.436h-4.628c-1.706,0-2.389-0.584-2.389-2.436
			v-25.189h-6.772c-1.169,0-1.9-0.535-1.9-1.607v-4.142c0-1.169,0.584-1.705,1.9-1.705h22.899c1.169,0,1.947,0.536,1.947,1.608
			v4.141c0,1.17-0.584,1.705-1.947,1.705L221.116,262.188L221.116,262.188z"/>
		<path style="fill:#F9C032;" d="M237.193,254.734h4.628c1.753,0,2.387,0.584,2.387,2.436v30.207c0,1.851-0.633,2.436-2.387,2.436
			h-4.628c-1.755,0-2.438-0.584-2.438-2.436V257.17C234.756,255.318,235.389,254.734,237.193,254.734z"/>
		<path style="fill:#F9C032;" d="M266.958,290.349c-13.398,0-16.71-9.5-16.71-17.881c0-8.38,3.312-18.27,16.71-18.27
			c13.398,0,16.663,9.891,16.663,18.27C283.622,280.848,280.357,290.349,266.958,290.349z M266.911,282.748
			c6.332,0,7.746-5.457,7.746-10.328c0-4.824-1.414-10.573-7.746-10.573c-6.236,0-7.699,5.701-7.699,10.573
			C259.212,277.34,260.675,282.748,266.911,282.748z"/>
		<path style="fill:#F9C032;" d="M313.146,254.734h4.044c1.461,0,2.045,0.536,2.045,2.143v30.792c0,1.607-0.584,2.143-2.045,2.143
			h-3.995c-2.143,0-2.438-0.877-3.703-2.777l-8.917-13.301l-2.826-4.19v18.124c0,1.607-0.535,2.143-2.045,2.143h-3.995
			c-1.463,0-2.096-0.536-2.096-2.143v-30.792c0-1.607,0.584-2.143,2.096-2.143h3.897c1.851,0,2.094,0.731,3.265,2.436l9.841,14.568
			l2.387,3.605v-18.465C311.098,255.27,311.636,254.734,313.146,254.734z"/>
	</g>
</g>
</svg>