<svg width="90" height="32" viewBox="0 0 90 32" fill="none" xmlns="http://www.w3.org/2000/svg">
  <path d="M16.1666 25.4901V19.0988C16.1666 17.3775 14.7585 15.9556 13.0209 15.9556H3.23926V25.4751C3.23926 27.1964 4.64734 28.6184 6.38497 28.6184H13.0359C14.7585 28.6184 16.1666 27.2114 16.1666 25.4901Z" fill="#FF6631"/>
  <path d="M29.0937 28.6183V19.0988C29.0937 17.3775 27.6856 15.9556 25.948 15.9556H19.2971C17.5744 15.9556 16.1514 17.3625 16.1514 19.0988V25.4901C16.1514 27.2114 17.5594 28.6333 19.2971 28.6333L29.0937 28.6183Z" fill="#840237"/>
  <path d="M22.6377 12.8275V6.48112C22.6377 4.72988 21.2146 3.29297 19.447 3.29297H12.841C11.1184 3.29297 9.69531 4.69994 9.69531 6.43621V15.9558H19.477C21.2146 15.9558 22.6377 14.5488 22.6377 12.8275Z" fill="#CE0631"/>
  <path d="M41.6084 14.1965C38.4522 14.1965 35.8887 11.7388 35.8887 8.55563C35.8887 5.37244 38.4225 2.94434 41.5787 2.94434C43.5347 2.94434 45.2684 3.84747 46.3501 5.49089C46.7057 6.02389 46.9873 6.63091 47.0762 7.26755H44.1719C43.7422 6.15714 42.7642 5.37244 41.5491 5.37244C39.7858 5.37244 38.6448 6.8678 38.6448 8.54082C38.6448 10.2138 39.7858 11.7684 41.5639 11.7684C42.779 11.7684 43.6829 11.0133 44.1719 9.93254H47.0762C46.4538 12.5087 44.2311 14.1965 41.6084 14.1965Z" fill="black"/>
  <path d="M66.8282 9.56261V14.0043H64.3981V9.68105C64.3981 8.79272 64.2795 7.87478 63.1534 7.87478C62.0717 7.87478 61.805 8.62986 61.805 9.56261V14.0043H59.3748V9.57741C59.3748 8.7483 59.1822 7.87478 58.1598 7.87478C57.0336 7.87478 56.7817 8.71869 56.7817 9.68105V14.0043H54.3516V8.85194L48.9282 16.7137H46.0684L47.6835 14.3892V5.87603H50.1136V10.8063H50.1877L53.5366 5.87603H56.6187V6.73475H56.6483C57.1225 5.90564 57.9671 5.59473 58.8858 5.59473C59.9379 5.59473 60.7381 6.12773 61.2271 7.04567C61.8198 6.12773 62.7088 5.59473 63.8054 5.59473C64.6055 5.59473 65.3761 5.83161 65.9391 6.40903C66.8727 7.35658 66.8282 8.31894 66.8282 9.56261Z" fill="black"/>
  <path d="M72.5633 14.2706C71.7335 14.2706 70.6518 13.9153 70.2369 13.1306H70.2073V13.9893H67.8809V3.1665H70.311V6.51255C70.9482 5.8463 71.7631 5.59461 72.667 5.59461C73.2597 5.59461 73.8376 5.74266 74.3859 5.99436C75.9566 6.71983 76.6679 8.20038 76.6679 9.88821C76.6679 12.3311 75.0972 14.2706 72.5633 14.2706ZM72.2521 7.85985C71.0963 7.85985 70.2369 8.76299 70.2369 9.90302C70.2369 11.0578 71.0222 11.9906 72.2077 11.9906C73.3783 11.9906 74.2377 11.0727 74.2377 9.91782C74.2377 8.80741 73.3931 7.85985 72.2521 7.85985Z" fill="black"/>
  <path d="M83.4981 13.9891V13.1156H83.4684C83.0239 13.9447 81.9718 14.2704 81.0976 14.2704C78.5933 14.2704 77.0078 12.3309 77.0078 9.91761C77.0078 7.54872 78.6526 5.57959 81.0976 5.57959C81.9866 5.57959 82.9943 5.92012 83.4684 6.71961H83.4981V5.86089H85.9282V13.9891H83.4981ZM81.4532 7.85964C80.2678 7.85964 79.4528 8.79239 79.4528 9.94722C79.4528 11.0724 80.327 11.9904 81.468 11.9904C82.6534 11.9904 83.4981 11.0872 83.4981 9.91761C83.4981 8.74797 82.6386 7.85964 81.4532 7.85964Z" fill="black"/>
  <path d="M87.0693 13.9893V3.1665H89.4995V14.0041H87.0693V13.9893Z" fill="black"/>
  <path d="M40.1855 28.7607C37.9925 28.7607 36.2588 27.6354 36.2588 25.311V24.9556H39.0297C39.0297 25.6663 39.3557 26.4362 40.1559 26.4362C40.7338 26.4362 41.208 25.9772 41.208 25.3998C41.208 24.6891 40.6152 24.4671 40.0522 24.2154C39.7262 24.0673 39.4002 23.9341 39.089 23.8008C37.6813 23.2086 36.4366 22.3943 36.4366 20.6916C36.4366 18.6633 38.3926 17.4937 40.2448 17.4937C41.2969 17.4937 42.4971 17.8934 43.1787 18.7225C43.7418 19.4184 43.8752 20.0106 43.9048 20.8693H41.1635C41.0746 20.2623 40.8671 19.8181 40.1707 19.8181C39.6817 19.8181 39.2224 20.1586 39.2224 20.6768C39.2224 20.8397 39.2372 21.0026 39.3261 21.1358C39.5928 21.58 41.0153 22.1278 41.4747 22.3351C42.912 23.0013 44.0234 23.7416 44.0234 25.4442C43.9789 27.7095 42.3341 28.7607 40.1855 28.7607Z" fill="black"/>
  <path d="M49.8915 28.5533V24.1264C49.8915 23.2381 49.6396 22.4238 48.5875 22.4238C47.5354 22.4238 47.2242 23.1197 47.2242 24.0376V28.5533H44.7793V17.686H47.2242V21.1505H47.2539C47.6836 20.3806 48.5282 20.1289 49.358 20.1289C50.1582 20.1289 51.0473 20.4103 51.5807 21.0173C52.3661 21.9056 52.3512 22.8828 52.3512 23.9932V28.5385H49.8915V28.5533Z" fill="black"/>
  <path d="M57.3892 28.8049C54.885 28.8049 52.9883 26.9691 52.9883 24.4669C52.9883 21.9648 54.885 20.1289 57.3892 20.1289C59.8934 20.1289 61.7901 21.9648 61.7901 24.4669C61.7901 26.9691 59.8934 28.8049 57.3892 28.8049ZM57.3892 22.4238C56.263 22.4238 55.4332 23.3713 55.4332 24.4817C55.4332 25.5921 56.263 26.5397 57.3892 26.5397C58.5153 26.5397 59.3452 25.5921 59.3452 24.4817C59.3452 23.3713 58.5302 22.4238 57.3892 22.4238Z" fill="black"/>
  <path d="M67.4067 28.8346C66.4435 28.8346 65.6137 28.5384 64.9469 27.8278V31.2775H62.502V20.4102H64.8135V21.2985H64.8284H64.858C65.4952 20.499 66.3991 20.1289 67.4067 20.1289C69.9405 20.1289 71.3927 22.2017 71.3927 24.5558C71.3779 26.8358 69.7924 28.8346 67.4067 28.8346ZM66.9029 22.409C65.7323 22.409 64.858 23.3269 64.858 24.4965C64.858 25.6366 65.7323 26.5693 66.9029 26.5693C68.0587 26.5693 68.9477 25.6514 68.9477 24.4965C68.9329 23.3269 68.0735 22.409 66.9029 22.409Z" fill="black"/>
  <path d="M74.9491 28.8349C73.245 28.8349 71.8225 27.9317 71.6299 26.1403H74.06C74.1341 26.6437 74.5046 26.8954 74.9787 26.8954C75.3492 26.8954 75.8382 26.6881 75.8382 26.2587C75.8382 25.6665 75.1714 25.4888 74.7416 25.326C74.386 25.2075 74.0304 25.0891 73.6896 24.9558C72.7264 24.6005 71.7484 23.9787 71.7484 22.8238C71.7484 21.1212 73.3339 20.144 74.9046 20.144C76.5346 20.144 77.8682 20.988 78.0312 22.7202H75.6307C75.6159 22.2612 75.2899 22.0984 74.8602 22.0984C74.5342 22.0984 74.1637 22.276 74.1637 22.6462C74.1637 23.9194 78.2683 23.2088 78.2683 26.0811C78.2683 27.9021 76.6087 28.8349 74.9491 28.8349Z" fill="black"/>
</svg>
