<?xml version="1.0" encoding="UTF-8"?>
<svg id="b" data-name="Layer 2" xmlns="http://www.w3.org/2000/svg" width="19.049" height="57.8" viewBox="0 0 19.049 57.8">
  <g id="c" data-name="GREEN 01">
    <g id="d" data-name="GREEN 01">
      <g>
        <g>
          <g>
            <rect x="8.424" y="29.6" width="2.2" height="27.2" fill="#303231" stroke-width="0"/>
            <rect x="8.824" y="29.6" width=".4" height="27.2" fill="#5c5d5d" stroke-width="0"/>
            <rect x="9.525" y="29.6" width="1.1" height="27.2" fill="#282a29" isolation="isolate" opacity=".53" stroke-width="0"/>
          </g>
          <g>
            <g>
              <g>
                <path d="M4.324,2H.024s-.3,3.1,1.2,3.7c0,0,1.1.3,1.2,1.5s.9,1.3,1.9,1.3V2Z" fill="#3f4040" stroke-width="0"/>
                <path d="M4.324,2H.024s-.3,3.1,1.2,3.7c0,0,1.1.3,1.2,1.5s.9,1.3,1.9,1.3V2Z" fill="#282a29" stroke-width="0"/>
                <path d="M.524,5h0c.2.3.4.5.7.6,0,0,1.1.3,1.2,1.5s.9,1.3,1.9,1.3v-3.4H.524Z" fill="#0b0b0b" isolation="isolate" opacity=".54" stroke-width="0"/>
                <path d="M4.324,3.3v-.8H.024v.8h4.3Z" fill="#4e4f4f" stroke-width="0"/>
                <path d="M3.025,2v6.2c.3.2.8.2,1.3.2V1.9h-1.3v.1Z" fill="#0b0b0b" isolation="isolate" opacity=".54" stroke-width="0"/>
              </g>
              <g>
                <path d="M4.324,12.6H.024s-.3,3.1,1.2,3.7c0,0,1.1.3,1.2,1.5s.9,1.3,1.9,1.3v-6.5Z" fill="#3f4040" stroke-width="0"/>
                <path d="M4.324,12.6H.024s-.3,3.1,1.2,3.7c0,0,1.1.3,1.2,1.5s.9,1.3,1.9,1.3v-6.5Z" fill="#282a29" stroke-width="0"/>
                <path d="M.524,15.6h0c.2.3.4.5.7.6,0,0,1.1.3,1.2,1.5s.9,1.3,1.9,1.3v-3.4H.524Z" fill="#0b0b0b" isolation="isolate" opacity=".54" stroke-width="0"/>
                <path d="M4.324,13.9v-.8H.024v.8h4.3Z" fill="#4e4f4f" stroke-width="0"/>
                <path d="M3.025,12.6v6.2c.3.2.8.2,1.3.2v-6.5h-1.3v.1Z" fill="#0b0b0b" isolation="isolate" opacity=".54" stroke-width="0"/>
              </g>
              <g>
                <path d="M4.324,23.1H.024s-.3,3.1,1.2,3.7c0,0,1.1.3,1.2,1.5s.9,1.3,1.9,1.3v-6.5Z" fill="#3f4040" stroke-width="0"/>
                <path d="M4.324,23.1H.024s-.3,3.1,1.2,3.7c0,0,1.1.3,1.2,1.5s.9,1.3,1.9,1.3v-6.5Z" fill="#282a29" stroke-width="0"/>
                <path d="M.524,26.2h0c.2.3.4.5.7.6,0,0,1.1.3,1.2,1.5s.9,1.3,1.9,1.3v-3.4H.524Z" fill="#0b0b0b" isolation="isolate" opacity=".54" stroke-width="0"/>
                <path d="M4.324,24.5v-.8H.024v.8h4.3Z" fill="#4e4f4f" stroke-width="0"/>
                <path d="M3.025,23.1v6.2c.3.2.8.2,1.3.2v-6.5h-1.3v.1Z" fill="#0b0b0b" isolation="isolate" opacity=".54" stroke-width="0"/>
              </g>
            </g>
            <g>
              <g>
                <path d="M14.724,2h4.3s.3,3.1-1.2,3.7c0,0-1.1.3-1.2,1.5s-.9,1.3-1.9,1.3V2h0Z" fill="#3f4040" stroke-width="0"/>
                <path d="M14.724,2h4.3s.3,3.1-1.2,3.7c0,0-1.1.3-1.2,1.5s-.9,1.3-1.9,1.3V2h0Z" fill="#282a29" stroke-width="0"/>
                <path d="M18.424,5h0c-.2.3-.4.5-.7.6,0,0-1.1.3-1.2,1.5s-.9,1.3-1.9,1.3v-3.4h3.8Z" fill="#0b0b0b" isolation="isolate" opacity=".54" stroke-width="0"/>
                <path d="M14.724,3.3v-.8h4.3v.8h-4.3Z" fill="#4e4f4f" stroke-width="0"/>
                <path d="M16.025,2v6.2c-.3.2-.8.2-1.3.2V1.9h1.3v.1Z" fill="#0b0b0b" isolation="isolate" opacity=".54" stroke-width="0"/>
              </g>
              <g>
                <path d="M14.724,12.6h4.3s.3,3.1-1.2,3.7c0,0-1.1.3-1.2,1.5s-.9,1.3-1.9,1.3v-6.5h0Z" fill="#3f4040" stroke-width="0"/>
                <path d="M14.724,12.6h4.3s.3,3.1-1.2,3.7c0,0-1.1.3-1.2,1.5s-.9,1.3-1.9,1.3v-6.5h0Z" fill="#282a29" stroke-width="0"/>
                <path d="M18.424,15.6h0c-.2.3-.4.5-.7.6,0,0-1.1.3-1.2,1.5s-.9,1.3-1.9,1.3v-3.4h3.8Z" fill="#0b0b0b" isolation="isolate" opacity=".54" stroke-width="0"/>
                <path d="M14.724,13.9v-.8h4.3v.8h-4.3Z" fill="#4e4f4f" stroke-width="0"/>
                <path d="M16.025,12.6v6.2c-.3.2-.8.2-1.3.2v-6.5h1.3v.1Z" fill="#0b0b0b" isolation="isolate" opacity=".54" stroke-width="0"/>
              </g>
              <g>
                <path d="M14.724,23.1h4.3s.3,3.1-1.2,3.7c0,0-1.1.3-1.2,1.5s-.9,1.3-1.9,1.3v-6.5h0Z" fill="#3f4040" stroke-width="0"/>
                <path d="M14.724,23.1h4.3s.3,3.1-1.2,3.7c0,0-1.1.3-1.2,1.5s-.9,1.3-1.9,1.3v-6.5h0Z" fill="#282a29" stroke-width="0"/>
                <path d="M18.424,26.2h0c-.2.3-.4.5-.7.6,0,0-1.1.3-1.2,1.5s-.9,1.3-1.9,1.3v-3.4h3.8Z" fill="#0b0b0b" isolation="isolate" opacity=".54" stroke-width="0"/>
                <path d="M14.724,24.5v-.8h4.3v.8h-4.3Z" fill="#4e4f4f" stroke-width="0"/>
                <path d="M16.025,23.1v6.2c-.3.2-.8.2-1.3.2v-6.5h1.3v.1Z" fill="#0b0b0b" isolation="isolate" opacity=".54" stroke-width="0"/>
              </g>
            </g>
            <g>
              <g>
                <path d="M5.224,8.6h0c.5,1.8,2.3,3.2,4.4,3.2h0c1.2,0,2.4-.5,3.2-1.3h0c.3-.3.5-.6.7-.9,0-.1.1-.1.1-.2s.1-.1.1-.2c0,0,.1-.1.1-.2s.1-.2.1-.2c0,0,0-.1.1-.1h.6c.1-.4.2-.8.2-1.2v-.2h0v-.2h0v-.2h0v-.2h0v-.2h0v-.2h0s0-.1-.1-.2h0s0-.1-.1-.1h0s0-.1-.1-.2h0s0-.1-.1-.2h0l-.1-.1h0l-.1-.1h0l-.1-.1h0l-.1-.1h0l-.1-.1h0l-.1-.1h0l-.1-.1h0l-.1-.1h0l-.1-.1h0l-.1-.1h0l-.1-.1h0l-.1-.1h0l-.1-.1h0l-.1-.1h0c-.1,0-.1-.1-.1-.1h0c-.1,0-.1-.1-.1-.1h0c-.1,0-.1-.1-.2-.1h0q-.1,0-.1-.1h0q-.1,0-.2-.1h0q-.1,0-.2-.1h0q-.1,0-.2-.1h0q-.1,0-.2-.1h-1.6c-2.8,0-5.1,2.2-5.1,4.8,0,.4.1.8.2,1.2v-.8h0Z" fill="#111212" stroke-width="0"/>
                <path d="M14.724,17.7v-.2h0v-.2h0v-.2h0v-.2h0v-.2h0s0-.1-.1-.2h0s0-.1-.1-.1h0s0-.1-.1-.2h0s0-.1-.1-.2h0l-.1-.1h0l-.1-.1h0l-.1-.1h0l-.1-.1h0l-.1-.1h0l-.1-.1h0l-.1-.1h0l-.1-.1h0l-.1-.1h0l-.1-.1h0l-.1-.1h0l-.1-.1h0l-.1-.1h0l-.1-.1h0c-.1,0-.1-.1-.1-.1h0c-.1,0-.1-.1-.1-.1h0c-.1,0-.1-.1-.2-.1h0q-.1,0-.1-.1h0q-.1,0-.2-.1h0q-.1,0-.2-.1h0q-.1,0-.2-.1h-1.8c-2.8,0-5.1,2.2-5.1,4.8,0,.4.1.8.2,1.2h.6c.5,1.8,2.3,3.2,4.4,3.2h0c1.2,0,2.4-.5,3.2-1.3h0c.3-.3.5-.6.7-.9,0-.1.1-.1.1-.2s.1-.1.1-.2c0,0,.1-.1.1-.2s.1-.2.1-.2c0,0,0-.1.1-.1h.6c.1-.4.2-.8.2-1.2-.601-1-.601-1.1-.601-1.1h0Z" fill="#111212" stroke-width="0"/>
                <path d="M14.724,27.8v-.2h0v-.2h0v-.2h0v-.2h0v-.2h0s0-.1-.1-.2h0s0-.1-.1-.1h0s0-.1-.1-.2h0s0-.1-.1-.2h0l-.1-.1h0l-.1-.1h0l-.1-.1h0l-.1-.1h0l-.1-.1h0l-.1-.1h0l-.1-.1h0l-.1-.1h0l-.1-.1h0l-.1-.1h0l-.1-.1h0l-.1-.1h0l-.1-.1h0l-.1-.1h0c-.1,0-.1-.1-.1-.1h0c-.1,0-.1-.1-.1-.1h0c-.1,0-.1-.1-.2-.1h0q-.1,0-.1-.1h0q-.1,0-.2-.1h0q-.1,0-.2-.1h0q-.1,0-.2-.1h-1.8c-2.8,0-5.1,2.2-5.1,4.8,0,.4.1.8.2,1.2h.6c.5,1.8,2.3,3.2,4.4,3.2h0c1.2,0,2.4-.5,3.2-1.3h0c.3-.3.5-.6.7-.9,0-.1.1-.1.1-.2s.1-.1.1-.2c0,0,.1-.1.1-.2s.1-.2.1-.2c0,0,0-.1.1-.1h.6c.1-.4.2-.8.2-1.2q-.601-1-.601-1.1h0Z" fill="#111212" stroke-width="0"/>
              </g>
              <g>
                <path d="M14.525,2.2c0,1.2-2.2,2.2-5,2.2s-5-1-5-2.2S6.724,0,9.525,0s5,.9,5,2.2Z" fill="#3f4040" stroke-width="0"/>
                <path d="M11.924.2h-.2c-.7.1-1.4.2-2.1.3-.7.1-1.4.1-2.1.2s-1.4.1-2.1.2h0c-.5.4-.9.8-.9,1.2,0,1.2,2.2,2.2,5,2.2s5-1,5-2.2c0-.8-1.1-1.5-2.6-1.9Z" fill="#3f4040" isolation="isolate" opacity=".42" stroke-width="0"/>
                <g>
                  <path d="M10.625,33.2h-2.2c-2.8,0-5-2.2-5-5V6.2c0-2.8,2.2-5,5-5h2.2c2.8,0,5,2.2,5,5v22c0,2.7-2.3,5-5,5Z" fill="#0b0b0b" stroke-width="0"/>
                  <path d="M10.525,32.8h-2.1c-2.6,0-4.8-2.1-4.8-4.8V6.5c0-2.6,2.2-4.8,4.8-4.8h2.1c2.6,0,4.8,2.1,4.8,4.8v21.5c0,2.7-2.1,4.8-4.8,4.8Z" fill="#282a29" stroke-width="0"/>
                  <path d="M12.924,2h1.3s.8-.1.9.7v28.5s.1,1.3-1.1,1.3h-2.4s2.5-.5,2.6-1.7V3.9c.1,0,.2-1.6-1.3-1.9Z" fill="#3f4040" isolation="isolate" opacity=".43" stroke-width="0"/>
                  <path d="M6.125,2h-1.3s-.8-.1-.9.7v28.5s-.1,1.3,1.1,1.3h2.4s-2.5-.5-2.6-1.7V3.9s-.2-1.6,1.3-1.9Z" fill="#3f4040" stroke-width="0"/>
                </g>
              </g>
              <g>
                <g>
                  <path d="M13.924,6.8c0,2.5-2,4.4-4.4,4.4s-4.4-2-4.4-4.4c0-2.5,2-4.4,4.4-4.4s4.4,2,4.4,4.4Z" fill="#e81d2e" stroke-width="0"/>
                  <path d="M12.125,6.6c-.2.3-.5.6-.8.8-.3.2-.7.4-1,.4h-.7c-.3,0-.6-.1-.8-.1-.6-.1-1.2-.2-1.8-.2-.3,0-.6.1-.8.2.4,1.4,1.8,2.5,3.3,2.5,1.9,0,3.5-1.5,3.5-3.5,0-.3,0-.6-.1-.9-.4.3-.6.6-.8.8Z" fill="#a9202a" stroke-width="0"/>
                  <path d="M9.525,2.4c-2.4,0-4.4,2-4.4,4.4,0,2.5,2,4.4,4.4,4.4s4.4-2,4.4-4.4c0-2.4-2-4.4-4.4-4.4ZM9.525,10.7c-2.2,0-3.9-1.8-3.9-3.9s1.8-3.9,3.9-3.9,3.9,1.8,3.9,3.9c0,2.2-1.8,3.9-3.9,3.9Z" fill="#80000e" stroke-width="0"/>
                  <path d="M5.424,6.7c.2-.5.4-.9.7-1.2.3-.3.7-.6,1.1-.9s.8-.4,1.3-.5c.4-.1.9-.1,1.4-.1.4,0,.9.1,1.3.2.4.2.8.4,1.2.6.4.3.7.6,1,1s.5.9.6,1.4h0v-.5c0-2.5-2-4.4-4.4-4.4s-4.4,2-4.4,4.4c0,.3,0,.5.1.8-.1-.2,0-.5.1-.8Z" fill="#80000e" stroke-width="0"/>
                  <path d="M5.324,8c-.1-.4-.2-.8-.2-1.2,0-2.4,2-4.4,4.4-4.4s4.4,2,4.4,4.4c0,.4-.1.8-.2,1.2h.6c.1-.4.1-.8.1-1.2,0-2.7-2.2-5-4.9-5s-4.9,2.2-4.9,5c0,.4.1.8.1,1.2h.6Z" fill="#111212" stroke-width="0"/>
                  <g>
                    <path d="M13.924,7c0,.4-.1.7-.2,1h.1c.1-.3.1-.6.1-.9v-.1Z" fill="#111212" stroke-width="0"/>
                    <path d="M9.525,2.1c2.7,0,4.9,2.1,4.9,4.8v-.1c0-2.2-1.4-4-3.4-4.7-.5-.2-1-.2-1.6-.2-2.7,0-4.9,2.2-4.9,5v.1c.1-2.7,2.3-4.9,5-4.9Z" fill="#fff" stroke-width="0"/>
                    <path d="M5.224,8h0c0-.3-.1-.7-.1-1v.1c0,.3,0,.6.1.9Z" fill="#111212" stroke-width="0"/>
                  </g>
                </g>
                <g>
                  <path d="M13.924,17.2c0,2.5-2,4.4-4.4,4.4s-4.4-2-4.4-4.4,2-4.4,4.4-4.4,4.4,2,4.4,4.4Z" fill="#f38137" stroke-width="0"/>
                  <path d="M12.125,17c-.2.3-.5.6-.8.8-.3.2-.7.4-1,.4h-.7c-.3,0-.6-.1-.8-.1-.6-.1-1.2-.2-1.8-.2-.3,0-.6.1-.8.2.4,1.4,1.8,2.5,3.3,2.5,1.9,0,3.5-1.5,3.5-3.5,0-.3,0-.6-.1-.9-.4.3-.6.5-.8.8Z" fill="#d78d36" stroke-width="0"/>
                  <path d="M9.525,12.8c-2.4,0-4.4,2-4.4,4.4s2,4.4,4.4,4.4,4.4-2,4.4-4.4-2-4.4-4.4-4.4ZM9.525,21.1c-2.2,0-3.9-1.8-3.9-3.9s1.8-3.9,3.9-3.9,3.9,1.8,3.9,3.9c0,2.1-1.8,3.9-3.9,3.9Z" fill="#be6e2d" stroke-width="0"/>
                  <path d="M5.424,17c.2-.5.4-.9.7-1.2.3-.3.7-.6,1.1-.9s.8-.4,1.3-.5c.4-.1.9-.1,1.4-.1.4,0,.9.1,1.3.2.4.2.8.4,1.2.6.4.3.7.6,1,1s.5.9.6,1.4h0v-.5c0-2.5-2-4.4-4.4-4.4s-4.4,2-4.4,4.4c0,.3,0,.5.1.8-.1-.2,0-.5.1-.8Z" fill="#f9a33c" stroke-width="0"/>
                  <path d="M5.324,18.4c-.1-.4-.2-.8-.2-1.2,0-2.4,2-4.4,4.4-4.4s4.4,2,4.4,4.4c0,.4-.1.8-.2,1.2h.6c.1-.4.1-.8.1-1.2,0-2.7-2.2-5-4.9-5s-4.9,2.2-4.9,5c0,.4.1.8.1,1.2h.6Z" fill="#111212" stroke-width="0"/>
                  <g>
                    <path d="M13.924,17.3c0,.4-.1.7-.2,1h.1c.1-.3.1-.6.1-.9v-.1Z" fill="#111212" stroke-width="0"/>
                    <path d="M9.525,12.5c2.7,0,4.9,2.1,4.9,4.8v-.1c0-2.2-1.4-4-3.4-4.7-.5-.2-1-.2-1.6-.2-2.7,0-4.9,2.2-4.9,5v.1c.1-2.7,2.3-4.9,5-4.9Z" fill="#fff" stroke-width="0"/>
                    <path d="M5.224,18.4h0c0-.3-.1-.7-.1-1v.1c0,.3,0,.6.1.9Z" fill="#111212" stroke-width="0"/>
                  </g>
                  <path d="M13.924,17.2c0,2.5-2,4.4-4.4,4.4s-4.4-2-4.4-4.4,2-4.4,4.4-4.4,4.4,2,4.4,4.4Z" fill="#5e5f62" stroke-width="0"/>
                </g>
                <g>
                  <path d="M13.924,27.6c0,2.5-2,4.4-4.4,4.4s-4.4-2-4.4-4.4c0-2.5,2-4.4,4.4-4.4s4.4,1.9,4.4,4.4Z" fill="#74b748" stroke-width="0"/>
                  <path d="M12.125,27.4c-.2.3-.5.6-.8.8-.3.2-.7.4-1,.4h-.7c-.3,0-.6-.1-.8-.1-.6-.1-1.2-.2-1.8-.2-.3,0-.6.1-.8.2.4,1.4,1.8,2.5,3.3,2.5,1.9,0,3.5-1.5,3.5-3.5,0-.3,0-.6-.1-.9-.4.2-.6.5-.8.8Z" fill="#74b748" stroke-width="0"/>
                  <path d="M9.525,23.1c-2.4,0-4.4,2-4.4,4.4,0,2.5,2,4.4,4.4,4.4s4.4-2,4.4-4.4c0-2.4-2-4.4-4.4-4.4ZM9.525,31.5c-2.2,0-3.9-1.8-3.9-3.9s1.8-3.9,3.9-3.9,3.9,1.8,3.9,3.9c0,2.1-1.8,3.9-3.9,3.9Z" fill="#28a74b" stroke-width="0"/>
                  <path d="M5.424,27.4c.2-.5.4-.9.7-1.2.3-.3.7-.6,1.1-.9s.8-.4,1.3-.5c.4-.1.9-.1,1.4-.1.4,0,.9.1,1.3.2.4.2.8.4,1.2.6.4.3.7.6,1,1s.5.9.6,1.4h0v-.5c0-2.5-2-4.4-4.4-4.4s-4.4,2-4.4,4.4c0,.3,0,.5.1.8-.1-.2,0-.5.1-.8Z" fill="#74b748" stroke-width="0"/>
                  <path d="M5.324,28.8c-.1-.4-.2-.8-.2-1.2,0-2.4,2-4.4,4.4-4.4s4.4,2,4.4,4.4c0,.4-.1.8-.2,1.2h.6c.1-.4.1-.8.1-1.2,0-2.7-2.2-5-4.9-5s-4.9,2.2-4.9,5c0,.4.1.8.1,1.2h.6Z" fill="#111212" stroke-width="0"/>
                  <g>
                    <path d="M13.924,27.7c0,.4-.1.7-.2,1h.1c.1-.3.1-.6.1-.9v-.1Z" fill="#111212" stroke-width="0"/>
                    <path d="M9.525,22.9c2.7,0,4.9,2.1,4.9,4.8v-.1c0-2.2-1.4-4-3.4-4.7-.5-.2-1-.2-1.6-.2-2.7,0-4.9,2.2-4.9,5v.1c.1-2.8,2.3-4.9,5-4.9Z" fill="#fff" stroke-width="0"/>
                    <path d="M5.224,28.8h0c0-.3-.1-.7-.1-1v.1c0,.3,0,.6.1.9Z" fill="#111212" stroke-width="0"/>
                  </g>
                </g>
              </g>
            </g>
          </g>
          <rect x="4.724" y="56" width="9.6" height="1.8" fill="#282a29" stroke-width="0"/>
          <rect x="4.724" y="56.4" width="9.6" height=".4" fill="#5c5d5d" stroke-width="0"/>
        </g>
        <path d="M13.924,6.9c0,2.5-2,4.4-4.4,4.4s-4.4-2-4.4-4.4c0-2.5,2-4.4,4.4-4.4s4.4,1.9,4.4,4.4Z" fill="#5e5f62" stroke-width="0"/>
      </g>
    </g>
  </g>
</svg>